<svg width="121" height="23" viewBox="0 0 121 23" fill="none" xmlns="http://www.w3.org/2000/svg">
<path d="M6.21726 17.0966C5.08288 17.0966 4.06193 16.8484 3.15442 16.3522C2.24692 15.8417 1.53084 15.1256 1.00619 14.2039C0.495715 13.2822 0.240479 12.2187 0.240479 11.0135C0.240479 9.80818 0.502805 8.7447 1.02746 7.82301C1.56629 6.90133 2.29655 6.19234 3.21823 5.69604C4.13992 5.18557 5.16795 4.93034 6.30234 4.93034C7.43672 4.93034 8.46476 5.18557 9.38644 5.69604C10.3081 6.19234 11.0313 6.90133 11.5559 7.82301C12.0948 8.7447 12.3642 9.80818 12.3642 11.0135C12.3642 12.2187 12.0877 13.2822 11.5347 14.2039C10.9958 15.1256 10.2585 15.8417 9.32263 16.3522C8.40095 16.8484 7.36582 17.0966 6.21726 17.0966ZM6.21726 14.5017C6.75609 14.5017 7.25947 14.3741 7.72741 14.1188C8.20952 13.8494 8.59237 13.4524 8.87597 12.9277C9.15956 12.4031 9.30136 11.765 9.30136 11.0135C9.30136 9.89326 9.00359 9.03538 8.40804 8.43983C7.82666 7.8301 7.11058 7.52524 6.2598 7.52524C5.40901 7.52524 4.69293 7.8301 4.11156 8.43983C3.54437 9.03538 3.26077 9.89326 3.26077 11.0135C3.26077 12.1337 3.53728 12.9986 4.09029 13.6084C4.65748 14.2039 5.36647 14.5017 6.21726 14.5017Z" fill="#0F172A"/>
<path d="M17.5262 6.82334C17.9091 6.2845 18.4338 5.83784 19.1002 5.48335C19.7808 5.11467 20.5536 4.93034 21.4186 4.93034C22.4254 4.93034 23.3329 5.17848 24.1411 5.67477C24.9635 6.17107 25.6087 6.88006 26.0767 7.80174C26.5588 8.70925 26.7998 9.76564 26.7998 10.9709C26.7998 12.1762 26.5588 13.2468 26.0767 14.1826C25.6087 15.1043 24.9635 15.8204 24.1411 16.3309C23.3329 16.8414 22.4254 17.0966 21.4186 17.0966C20.5536 17.0966 19.7879 16.9193 19.1215 16.5648C18.4692 16.2104 17.9375 15.7637 17.5262 15.2249V22.5204H14.5485V5.12176H17.5262V6.82334ZM23.7583 10.9709C23.7583 10.2619 23.6094 9.6522 23.3116 9.14173C23.028 8.61708 22.6452 8.22005 22.163 7.95063C21.6951 7.68121 21.1846 7.54651 20.6316 7.54651C20.0928 7.54651 19.5823 7.6883 19.1002 7.9719C18.6323 8.24131 18.2494 8.63835 17.9516 9.163C17.668 9.68765 17.5262 10.3045 17.5262 11.0135C17.5262 11.7225 17.668 12.3393 17.9516 12.8639C18.2494 13.3886 18.6323 13.7927 19.1002 14.0763C19.5823 14.3457 20.0928 14.4804 20.6316 14.4804C21.1846 14.4804 21.6951 14.3386 22.163 14.055C22.6452 13.7714 23.028 13.3673 23.3116 12.8427C23.6094 12.318 23.7583 11.6941 23.7583 10.9709Z" fill="#0F172A"/>
<path d="M39.9176 10.7582C39.9176 11.1836 39.8892 11.5665 39.8325 11.9068H31.2183C31.2892 12.7576 31.5869 13.424 32.1116 13.9061C32.6362 14.3883 33.2814 14.6293 34.0471 14.6293C35.1532 14.6293 35.9401 14.1543 36.4081 13.2042H39.6198C39.2795 14.3386 38.6272 15.2745 37.663 16.0118C36.6988 16.735 35.5147 17.0966 34.1109 17.0966C32.9766 17.0966 31.9556 16.8484 31.0481 16.3522C30.1548 15.8417 29.4529 15.1256 28.9424 14.2039C28.4461 13.2822 28.198 12.2187 28.198 11.0135C28.198 9.794 28.4461 8.72343 28.9424 7.80174C29.4387 6.88006 30.1335 6.17107 31.0268 5.67477C31.9202 5.17848 32.9482 4.93034 34.1109 4.93034C35.2312 4.93034 36.2308 5.17139 37.11 5.6535C38.0033 6.13562 38.691 6.82334 39.1731 7.71666C39.6694 8.59581 39.9176 9.60966 39.9176 10.7582ZM36.8335 9.90744C36.8193 9.14173 36.5428 8.532 36.0039 8.07825C35.4651 7.61031 34.8058 7.37635 34.0259 7.37635C33.2885 7.37635 32.6646 7.60323 32.1541 8.05698C31.6578 8.49655 31.353 9.11337 31.2395 9.90744H36.8335Z" fill="#0F172A"/>
<path d="M48.6209 4.9516C50.0247 4.9516 51.159 5.39827 52.024 6.29159C52.889 7.17074 53.3215 8.40438 53.3215 9.99252V16.9052H50.3437V10.3966C50.3437 9.46078 50.1097 8.7447 49.6418 8.24841C49.1739 7.73793 48.5358 7.4827 47.7275 7.4827C46.9051 7.4827 46.2528 7.73793 45.7707 8.24841C45.3028 8.7447 45.0688 9.46078 45.0688 10.3966V16.9052H42.0911V5.12176H45.0688V6.58937C45.4659 6.0789 45.9692 5.68186 46.579 5.39827C47.2029 5.10049 47.8835 4.9516 48.6209 4.9516Z" fill="#0F172A"/>
<path d="M70.7867 4.9516C72.233 4.9516 73.3958 5.39827 74.2749 6.29159C75.1682 7.17074 75.6149 8.40438 75.6149 9.99252V16.9052H72.6372V10.3966C72.6372 9.47496 72.4032 8.77306 71.9353 8.29094C71.4673 7.79465 70.8292 7.54651 70.021 7.54651C69.2127 7.54651 68.5676 7.79465 68.0854 8.29094C67.6175 8.77306 67.3835 9.47496 67.3835 10.3966V16.9052H64.4058V10.3966C64.4058 9.47496 64.1718 8.77306 63.7039 8.29094C63.236 7.79465 62.5979 7.54651 61.7896 7.54651C60.9672 7.54651 60.3149 7.79465 59.8328 8.29094C59.3649 8.77306 59.1309 9.47496 59.1309 10.3966V16.9052H56.1531V5.12176H59.1309V6.54683C59.5138 6.05054 60.003 5.66059 60.5985 5.377C61.2082 5.0934 61.8747 4.9516 62.5979 4.9516C63.5195 4.9516 64.342 5.15012 65.0651 5.54716C65.7883 5.93001 66.3484 6.48302 66.7455 7.20619C67.1283 6.52556 67.6813 5.97964 68.4045 5.56842C69.1418 5.15721 69.9359 4.9516 70.7867 4.9516Z" fill="#0F172A"/>
<path d="M79.9508 3.71796C79.4261 3.71796 78.9865 3.5549 78.632 3.22876C78.2917 2.88845 78.1216 2.47014 78.1216 1.97385C78.1216 1.47756 78.2917 1.06634 78.632 0.740208C78.9865 0.399894 79.4261 0.229736 79.9508 0.229736C80.4754 0.229736 80.9079 0.399894 81.2482 0.740208C81.6027 1.06634 81.78 1.47756 81.78 1.97385C81.78 2.47014 81.6027 2.88845 81.2482 3.22876C80.9079 3.5549 80.4754 3.71796 79.9508 3.71796ZM81.4184 5.12176V16.9052H78.4406V5.12176H81.4184Z" fill="#0F172A"/>
<path d="M83.5947 11.0135C83.5947 9.794 83.8428 8.73052 84.3391 7.82301C84.8354 6.90133 85.5231 6.19234 86.4023 5.69604C87.2814 5.18557 88.2882 4.93034 89.4226 4.93034C90.8831 4.93034 92.0884 5.29901 93.0384 6.03636C94.0027 6.75953 94.6478 7.78047 94.974 9.09919H91.7622C91.5921 8.58872 91.3014 8.19169 90.8902 7.90809C90.4932 7.61031 89.9969 7.46143 89.4013 7.46143C88.5505 7.46143 87.877 7.77338 87.3807 8.39729C86.8844 9.00702 86.6363 9.87908 86.6363 11.0135C86.6363 12.1337 86.8844 13.0057 87.3807 13.6296C87.877 14.2394 88.5505 14.5442 89.4013 14.5442C90.6066 14.5442 91.3936 14.0054 91.7622 12.9277H94.974C94.6478 14.2039 94.0027 15.2178 93.0384 15.9693C92.0742 16.7208 90.8689 17.0966 89.4226 17.0966C88.2882 17.0966 87.2814 16.8484 86.4023 16.3522C85.5231 15.8417 84.8354 15.1327 84.3391 14.2252C83.8428 13.3035 83.5947 12.2329 83.5947 11.0135Z" fill="#0F172A"/>
<path d="M98.4742 17.0541C97.9353 17.0541 97.4887 16.891 97.1342 16.5648C96.7939 16.2245 96.6237 15.8062 96.6237 15.3099C96.6237 14.8136 96.7939 14.4024 97.1342 14.0763C97.4887 13.736 97.9353 13.5658 98.4742 13.5658C98.9988 13.5658 99.4313 13.736 99.7716 14.0763C100.112 14.4024 100.282 14.8136 100.282 15.3099C100.282 15.8062 100.112 16.2245 99.7716 16.5648C99.4313 16.891 98.9988 17.0541 98.4742 17.0541Z" fill="#0F172A"/>
<path d="M101.915 10.9709C101.915 9.77982 102.149 8.72343 102.617 7.80174C103.099 6.88006 103.744 6.17107 104.552 5.67477C105.375 5.17848 106.289 4.93034 107.296 4.93034C108.175 4.93034 108.941 5.10758 109.593 5.46208C110.26 5.81657 110.791 6.26324 111.188 6.80207V5.12176H114.187V16.9052H111.188V15.1823C110.806 15.7353 110.274 16.1962 109.593 16.5648C108.927 16.9193 108.154 17.0966 107.275 17.0966C106.282 17.0966 105.375 16.8414 104.552 16.3309C103.744 15.8204 103.099 15.1043 102.617 14.1826C102.149 13.2468 101.915 12.1762 101.915 10.9709ZM111.188 11.0135C111.188 10.2903 111.047 9.67347 110.763 9.163C110.479 8.63835 110.097 8.24131 109.614 7.9719C109.132 7.6883 108.615 7.54651 108.062 7.54651C107.509 7.54651 106.998 7.68121 106.53 7.95063C106.062 8.22005 105.68 8.61708 105.382 9.14173C105.098 9.6522 104.956 10.2619 104.956 10.9709C104.956 11.6799 105.098 12.3038 105.382 12.8427C105.68 13.3673 106.062 13.7714 106.53 14.055C107.012 14.3386 107.523 14.4804 108.062 14.4804C108.615 14.4804 109.132 14.3457 109.614 14.0763C110.097 13.7927 110.479 13.3957 110.763 12.8852C111.047 12.3605 111.188 11.7366 111.188 11.0135Z" fill="#0F172A"/>
<path d="M118.606 3.71796C118.081 3.71796 117.642 3.5549 117.287 3.22876C116.947 2.88845 116.777 2.47014 116.777 1.97385C116.777 1.47756 116.947 1.06634 117.287 0.740208C117.642 0.399894 118.081 0.229736 118.606 0.229736C119.131 0.229736 119.563 0.399894 119.903 0.740208C120.258 1.06634 120.435 1.47756 120.435 1.97385C120.435 2.47014 120.258 2.88845 119.903 3.22876C119.563 3.5549 119.131 3.71796 118.606 3.71796ZM120.074 5.12176V16.9052H117.096V5.12176H120.074Z" fill="#0F172A"/>
</svg>
