<svg width="21" height="29" viewBox="0 0 21 29" fill="none" xmlns="http://www.w3.org/2000/svg">
<path d="M0.851562 14.0908V15.5257C0.851562 20.5479 4.58233 24.8526 9.46102 25.4266V28.4399H12.3308V25.4266C17.2095 24.7092 20.9403 20.5479 20.9403 15.5257V14.0908H18.0705V15.5257C18.0705 19.5435 14.7702 22.7003 10.8959 22.7003C6.87818 22.7003 3.72138 19.5435 3.72138 15.5257V14.0908H0.851562Z" fill="#9766ED"/>
<path d="M20.9404 11.646V10.2111C20.9404 5.1889 17.2097 0.884174 12.331 0.31021H9.46115C4.58246 1.02767 0.851698 5.1889 0.851698 10.2111V11.646H3.72152V10.2111C3.72152 6.19334 7.02181 3.03654 10.8961 3.03654C14.9138 3.03654 18.0706 6.19334 18.0706 10.2111V11.646H20.9404Z" fill="#9766ED"/>
<path d="M14.4337 15.4771V10.8854C14.4337 8.93396 12.9414 7.44165 10.9899 7.44165C9.03845 7.44165 7.54614 8.93396 7.54614 10.8854V15.4771C7.54614 17.4286 9.03845 18.9209 10.9899 18.9209C12.9414 18.9209 14.4337 17.4286 14.4337 15.4771Z" fill="#9766ED"/>
</svg>
